<svg id="Camada_1" data-name="Camada 1" xmlns="http://www.w3.org/2000/svg" viewBox="0 0 500 170"><title>Prancheta 1</title><text transform="translate(0 160.2)" style="font-size:180px;fill:#8544a3;font-family:Poppins-Bold, Poppins;font-weight:700">Ea<tspan x="219.59" y="0" style="letter-spacing:-0.03196072048611111em">	</tspan><tspan x="252" y="0" style="letter-spacing:0.0940212673611111em">	</tspan><tspan x="307.08" y="0">er</tspan></text><path d="M251.13,7.09a3.49,3.49,0,0,0-4,3.51c.12,6.16,1.72,93.36,1.79,97.29l21.68-.39-.09-4.71,5.71-.1a3.47,3.47,0,0,0,3.41-3.54c-.66-36-5.29-62.19-13.77-77.94C259.07,8.52,251.92,7.2,251.13,7.09Z" style="fill:#8544a3"/><path d="M247.26,114.88l.61,33.49a12.67,12.67,0,0,0,25.33-.47l-.61-33.48Z" style="fill:#8544a3"/><path d="M346.73,46.52l-41.89.4a3,3,0,0,1-3.07-3h0a3,3,0,0,1,3-3.07l41.89-.4-.06-6.07-41.89.4a3,3,0,0,1-3.06-3h0a3,3,0,0,1,3-3.07l41.9-.4-.06-6.07-41.9.4a3,3,0,0,1-3.06-3h0a3,3,0,0,1,3-3.07l41.89-.4-.06-6.07-40.54.39a19.59,19.59,0,0,0-14.47,6.59c-6.52,7.29-16.35,10.72-26.1,10.08C232.86,25,189,23.84,189,23.84a9,9,0,1,0,.18,18.05s43.81-2,76.17-4.79c9.75-.83,19.64,2.41,26.29,9.58a19.61,19.61,0,0,0,14.6,6.3l40.54-.39Z" style="fill:#8544a3"/></svg>