<svg id="Capa_1" enable-background="new 0 0 497 497" height="512" viewBox="0 0 497 497" width="512" xmlns="http://www.w3.org/2000/svg"><g><g><path d="m404.74 269.1h-69.507c-2.9 0-5.362-2.08-5.897-4.931-10.155-54.171-57.967-95.069-115.225-94.463-63.744.676-114.711 53.371-114.711 117.118v9.409c0 3.314-2.686 6-6 6h-17.914c-41.106 0-75.179 32.879-75.484 73.984-.307 41.432 33.187 75.116 74.548 75.116h331.333c50.552 0 91.49-41.168 91.114-91.808-.372-50.239-42.016-90.425-92.257-90.425z" fill="#c8effe"/><g fill="#99e2fc"><g><path d="m404.74 269.1h-23c50.241 0 91.885 40.186 92.258 90.426.375 50.639-40.562 91.808-91.114 91.808h23c50.552 0 91.49-41.168 91.114-91.808-.373-50.24-42.017-90.426-92.258-90.426z"/><path d="m306.336 264.17c.534 2.851 2.996 4.931 5.897 4.931h23c-2.9 0-5.362-2.08-5.897-4.931-10.155-54.171-57.967-95.069-115.225-94.463-3.438.036-6.835.233-10.192.566 51.461 5.09 93.029 43.82 102.417 93.897z"/></g><path d="m149.1 302.234c4.143 0 7.5-3.357 7.5-7.5s-3.357-7.5-7.5-7.5h-49.7v9c0 3.314-2.686 6-6 6h-17.914c-.007 0-.013 0-.02 0z"/></g></g><path d="m331.333 86.3c-.092 0-.184 0-.277 0-5.67.01-7.24 7.769-2.065 10.087 40.608 18.189 68.846 59.048 68.606 106.479-.32 63.296-52.07 115.046-115.366 115.366-47.431.24-88.29-27.999-106.479-68.606-2.318-5.175-10.077-3.606-10.087 2.064v.277c0 91.495 74.171 165.666 165.665 165.667 91.41.001 165.669-74.258 165.668-165.668.001-91.496-74.17-165.666-165.665-165.666z" fill="#ffd900"/><g><path d="m265.067 93.799c-4.142 0-7.5-3.357-7.5-7.5v-33.132c0-4.143 3.358-7.5 7.5-7.5s7.5 3.357 7.5 7.5v33.133c0 4.142-3.358 7.499-7.5 7.499z" fill="#fb0"/></g><g><path d="m281.633 77.233h-33.133c-4.142 0-7.5-3.357-7.5-7.5s3.358-7.5 7.5-7.5h33.133c4.142 0 7.5 3.357 7.5 7.5s-3.357 7.5-7.5 7.5z" fill="#fb0"/></g><g><path d="m198.8 143.5c-4.142 0-7.5-3.357-7.5-7.5v-33.133c0-4.143 3.358-7.5 7.5-7.5s7.5 3.357 7.5 7.5v33.133c0 4.142-3.358 7.5-7.5 7.5z" fill="#fb0"/></g><g><path d="m215.367 126.933h-33.133c-4.142 0-7.5-3.357-7.5-7.5s3.358-7.5 7.5-7.5h33.133c4.142 0 7.5 3.357 7.5 7.5s-3.358 7.5-7.5 7.5z" fill="#fb0"/></g><path d="m331.333 86.3c-.092 0-.184 0-.277 0-5.67.01-7.24 7.769-2.065 10.087 40.608 18.189 68.846 59.048 68.606 106.479-.32 63.296-52.07 115.046-115.366 115.366-47.431.24-88.29-27.999-106.479-68.606-2.318-5.175-10.077-3.606-10.087 2.064v.277c0 91.495 74.171 165.666 165.665 165.667 91.41.001 165.669-74.258 165.668-165.668.001-91.496-74.17-165.666-165.665-165.666z" fill="#ffd900"/><g fill="#fb0"><path d="m259.233 318.231c3.678-.018 7.314-.218 10.906-.576-42.203-4.154-77.763-30.919-94.385-68.03-2.318-5.175-10.077-3.606-10.087 2.064v.277c0 7.253.469 14.396 1.373 21.402 21.329 27.441 54.702 45.053 92.193 44.863z"/><path d="m331.333 86.3c-.092 0-.184 0-.277 0-1.34.002-2.441.447-3.288 1.141 82.335 9.622 146.231 79.605 146.232 164.523.001 87.546-68.116 159.35-154.175 165.264 3.803.261 7.638.405 11.507.405 91.41.001 165.669-74.258 165.668-165.669-.001-91.494-74.172-165.664-165.667-165.664z"/></g></g></svg>